<?xml version="1.0" standalone="no"?>
<!DOCTYPE svg PUBLIC "-//W3C//DTD SVG 20010904//EN"
 "http://www.w3.org/TR/2001/REC-SVG-20010904/DTD/svg10.dtd">
<svg version="1.0" xmlns="http://www.w3.org/2000/svg"
 width="225.000000pt" height="225.000000pt" viewBox="0 0 225.000000 225.000000"
 preserveAspectRatio="xMidYMid meet">

<g transform="translate(0.000000,225.000000) scale(0.100000,-0.100000)"
fill="#000000" stroke="none">
<path d="M680 2240 c-25 -4 173 -7 440 -7 273 0 465 3 440 8 -55 9 -817 9
-880 -1z"/>
<path d="M951 2090 c-113 -24 -241 -77 -337 -141 -69 -46 -309 -290 -334 -340
-14 -26 -25 -74 -30 -128 -5 -47 -14 -110 -19 -140 -6 -29 -11 -71 -11 -92 0
-35 -3 -39 -25 -39 -29 0 -28 8 -55 -277 -24 -258 -24 -246 -2 -239 9 2 64 7
122 11 93 6 103 5 91 -9 -18 -22 29 -89 148 -206 148 -146 340 -262 538 -327
l84 -28 96 33 c201 69 372 173 520 315 113 110 172 190 154 211 -21 25 -4 35
36 20 131 -46 223 27 210 168 -3 32 -12 70 -21 83 -16 24 -15 25 4 25 16 0 20
7 20 38 0 49 -18 112 -38 136 -10 10 -31 25 -48 32 -30 13 -31 16 -37 86 -3
40 0 97 5 125 13 65 -3 160 -37 219 -26 44 -88 104 -132 128 -15 8 -55 43 -88
76 -109 112 -246 195 -400 241 -54 16 -104 22 -220 25 -82 1 -170 -1 -194 -6z
m396 -49 c141 -40 266 -111 368 -206 l50 -47 -38 5 c-23 4 -50 18 -74 41 -36
34 -38 34 -66 19 -18 -9 -42 -13 -59 -9 -20 4 -27 2 -22 -6 4 -6 -2 -18 -12
-26 -16 -12 -16 -14 -2 -9 10 3 20 1 24 -5 4 -6 22 -8 48 -4 39 6 40 6 19 -9
-14 -10 -33 -13 -50 -10 -21 4 -23 3 -9 -3 12 -5 15 -11 9 -15 -6 -4 -16 0
-23 8 -7 8 -9 15 -4 16 5 0 -2 5 -15 10 -23 9 -23 10 -6 29 19 21 8 29 -12 9
-8 -8 -16 -8 -30 0 -18 11 -18 11 27 15 8 1 14 7 13 13 -2 7 9 8 35 2 50 -12
52 -11 52 7 0 11 5 14 17 10 22 -9 16 -3 -28 27 -24 16 -36 20 -36 11 0 -7 4
-11 8 -8 4 2 10 0 13 -5 3 -5 -1 -11 -9 -15 -8 -3 -15 -1 -15 5 0 5 -11 15
-25 21 -26 12 -36 34 -10 24 22 -8 18 2 -5 14 -26 14 -45 3 -29 -16 8 -10 8
-14 0 -14 -6 0 -11 5 -11 10 0 6 -15 10 -32 11 l-33 1 33 12 34 12 -69 22
c-41 13 -79 19 -97 15 -18 -4 -31 -1 -36 8 -6 9 -38 14 -107 16 -70 2 -91 0
-73 -7 19 -7 13 -8 -24 -4 -33 4 -46 2 -41 -5 3 -7 -2 -11 -15 -11 -12 0 -19
-4 -15 -9 3 -5 18 -8 33 -6 15 1 33 -2 39 -7 7 -6 45 -15 85 -20 139 -18 148
-20 148 -29 0 -5 -10 -7 -22 -4 -86 19 -113 22 -150 17 -28 -3 -39 -2 -34 6 4
7 -11 13 -41 18 -27 3 -53 10 -59 15 -6 5 -26 4 -45 -1 -41 -12 -41 -12 -35
-1 5 7 -13 8 -47 2 -22 -4 4 -27 48 -43 58 -20 68 -22 60 -8 -4 6 14 10 47 9
50 -1 51 -2 18 -9 -19 -5 -39 -6 -44 -3 -5 4 -6 1 -2 -5 10 -17 -24 -15 -67 3
-50 21 -83 19 -116 -6 -16 -12 -33 -19 -38 -16 -5 3 -14 -3 -21 -13 -9 -15 -9
-22 3 -34 13 -13 10 -15 -26 -21 -27 -5 -45 -3 -52 5 -9 9 -6 10 14 5 17 -4
30 -1 38 9 11 13 11 16 -2 16 -8 0 -17 -4 -19 -9 -1 -4 -12 -5 -23 0 -19 7
-19 8 3 8 13 1 21 5 17 11 -3 6 -15 5 -31 -2 -13 -6 -21 -14 -17 -17 4 -3 8
-12 9 -18 2 -31 5 -34 24 -28 27 8 63 -4 57 -19 -8 -21 26 -14 45 8 9 12 17
16 18 9 0 -6 -11 -20 -25 -31 -21 -17 -29 -18 -49 -9 -16 8 -20 14 -13 19 21
13 -3 21 -29 9 -14 -6 -29 -9 -34 -6 -15 9 -75 13 -85 5 -5 -4 -23 -10 -40
-14 l-30 -7 35 36 c108 114 263 199 430 236 112 25 301 20 407 -10z m-154 -28
c-7 -2 -19 -2 -25 0 -7 3 -2 5 12 5 14 0 19 -2 13 -5z m-120 -20 c-7 -2 -19
-2 -25 0 -7 3 -2 5 12 5 14 0 19 -2 13 -5z m53 -8 c-16 -17 -36 -20 -36 -6 0
8 17 16 43 20 5 0 2 -6 -7 -14z m171 -13 c12 -6 31 -12 42 -12 12 0 21 -4 21
-9 0 -5 -17 -4 -40 1 -22 6 -40 14 -40 18 0 4 -17 4 -38 0 -21 -3 -47 -3 -58
0 -17 7 -16 8 6 12 42 7 84 3 107 -10z m70 7 c43 -17 13 -21 -33 -5 -27 10
-32 15 -17 15 12 1 34 -4 50 -10z m-492 -9 c3 -5 16 -11 28 -11 17 -1 18 -2 5
-6 -10 -2 -28 3 -40 11 -12 9 -17 16 -11 16 7 0 15 -4 18 -10z m480 -42 c25 0
27 -1 10 -8 -14 -6 -15 -9 -5 -10 12 0 12 -3 -2 -11 -13 -7 -26 -6 -45 5 -16
9 -22 16 -13 16 11 1 9 4 -5 11 -17 8 -16 8 5 3 14 -3 39 -6 55 -6z m-482 -13
c39 -3 40 -9 7 -33 -18 -14 -31 -18 -35 -11 -5 7 -13 5 -23 -5 -15 -13 -17
-12 -18 17 -1 18 1 24 3 15 5 -21 19 -23 29 -6 4 6 -2 18 -12 26 -18 14 -18
14 1 7 11 -4 32 -8 48 -10z m562 -5 c10 -16 -5 -50 -21 -50 -13 0 -13 2 0 16
21 20 20 31 -1 37 -16 4 -16 5 -1 6 9 0 20 -4 23 -9z m-198 -34 c230 -61 386
-295 345 -516 -13 -73 -60 -180 -78 -180 -18 0 -18 7 5 44 23 38 45 105 37
113 -3 3 -31 -17 -61 -46 -31 -28 -60 -51 -65 -51 -4 0 -13 -13 -19 -29 -11
-25 -19 -29 -67 -34 -31 -3 -66 -13 -79 -21 -21 -14 -27 -14 -52 -1 -15 8 -40
15 -55 15 -25 0 -28 4 -28 34 0 28 -5 36 -30 46 -17 7 -56 28 -86 46 l-56 34
-54 -28 -55 -27 5 -47 c3 -26 1 -50 -4 -53 -10 -6 -16 11 -25 72 -4 24 -11 45
-16 49 -5 3 -23 32 -39 65 -33 64 -60 78 -60 30 0 -44 36 -151 66 -194 17 -25
23 -42 16 -49 -12 -12 -64 70 -87 137 -58 172 -10 353 124 478 118 109 275
151 418 113z m148 4 c3 -6 -1 -7 -9 -4 -18 7 -21 14 -7 14 6 0 13 -4 16 -10z
m185 6 c0 -2 -7 -7 -16 -10 -8 -3 -12 -2 -9 4 6 10 25 14 25 6z m-749 -47
c-13 -11 -31 -17 -39 -14 -8 3 -23 -2 -33 -11 -22 -20 -25 -7 -5 19 10 12 21
15 43 11 18 -4 33 -1 37 5 4 6 10 11 14 11 4 -1 -4 -10 -17 -21z m812 -28 c-3
-11 -10 -21 -15 -21 -5 0 -6 5 -3 10 3 6 0 10 -7 11 -7 0 -4 4 7 9 17 7 17 9
3 9 -11 1 -15 6 -12 16 9 23 34 -8 27 -34z m-66 3 c-3 -3 -12 -4 -19 -1 -8 3
-5 6 6 6 11 1 17 -2 13 -5z m-888 -75 c17 -6 31 -15 31 -20 0 -12 -12 -11 -45
1 -58 22 -155 -33 -155 -87 0 -20 4 -23 20 -18 28 9 124 24 129 20 9 -10 -13
-25 -37 -25 -45 0 -102 -20 -102 -35 0 -8 23 -31 50 -51 54 -39 67 -64 21 -40
-43 23 -91 66 -91 83 0 10 -6 12 -22 8 -37 -11 -39 -19 -23 -64 41 -118 154
-280 206 -296 35 -11 22 -35 -18 -35 -28 1 -34 3 -22 10 13 8 6 19 -42 68 -52
54 -104 144 -155 269 -7 18 -12 20 -25 10 -13 -10 -15 -28 -9 -123 9 -141 26
-182 90 -206 39 -15 41 -17 17 -17 -65 -2 -151 70 -190 158 -29 66 -28 171 2
231 72 143 226 209 370 159z m1149 -25 c98 -49 155 -139 156 -249 1 -82 -24
-143 -82 -201 -55 -55 -104 -74 -194 -74 -122 0 -165 28 -85 56 75 26 158 99
196 173 16 30 6 39 -52 47 l-48 7 -49 -54 c-32 -36 -49 -48 -50 -37 0 9 4 19
8 22 5 3 21 23 36 44 l26 39 -19 44 c-11 25 -23 75 -27 112 -4 37 -9 67 -11
67 -2 0 -18 -7 -35 -16 -20 -10 -34 -12 -40 -6 -22 22 62 50 153 51 51 1 76
-5 117 -25z m-1527 -439 c16 -36 34 -63 39 -60 5 3 11 1 15 -5 3 -5 -1 -10 -9
-10 -8 0 -18 5 -21 10 -4 6 -10 8 -15 5 -4 -3 -6 4 -3 15 3 12 0 20 -6 20 -7
0 -10 -4 -7 -9 9 -14 -4 -41 -19 -41 -8 0 -17 4 -20 10 -6 10 4 130 12 130 2
0 17 -29 34 -65z m1678 -66 c-8 -4 -18 -4 -24 1 -7 6 -16 5 -23 -2 -9 -9 -12
-9 -12 0 0 7 4 12 9 12 5 0 20 17 32 38 l24 37 3 -39 c2 -24 -2 -42 -9 -47z
m-1629 -66 c5 -4 39 -301 39 -350 1 -32 0 -33 -39 -33 -38 0 -40 2 -40 30 0
25 -4 30 -24 30 -21 0 -25 -6 -28 -32 -3 -31 -6 -33 -46 -36 l-43 -3 5 33 c7
37 36 333 36 361 0 16 7 17 68 11 37 -4 69 -9 72 -11z m1692 6 c20 -11 48 -65
48 -94 0 -11 -11 -15 -45 -15 -38 0 -45 3 -45 20 0 11 -7 20 -15 20 -30 0 -14
-36 42 -92 52 -52 57 -61 61 -111 8 -96 -31 -137 -116 -124 -54 9 -82 46 -82
108 l0 50 38 -3 c35 -3 37 -5 40 -41 3 -30 7 -37 20 -35 34 7 16 57 -43 118
-49 52 -55 63 -55 100 0 23 5 50 10 60 22 42 98 62 142 39z m-172 -39 c0 -33
-3 -40 -19 -40 -17 0 -20 -11 -26 -102 -4 -57 -5 -124 -3 -150 1 -26 0 -48 -4
-48 -5 0 -24 0 -43 0 l-35 0 0 150 0 150 -25 0 c-22 0 -25 4 -25 35 l0 34 78
4 c42 1 83 4 90 5 8 1 12 -12 12 -38z m-1370 -125 l0 -155 43 2 c39 3 42 1 45
-25 4 -32 0 -34 -95 -41 l-73 -5 0 190 0 189 40 0 40 0 0 -155z m190 0 l0
-145 45 0 c43 0 45 -1 45 -29 l0 -28 -82 -6 c-45 -4 -85 -3 -89 1 -4 4 -5 85
-2 180 l6 172 38 0 39 0 0 -145z m277 111 c13 -15 23 -36 23 -47 0 -16 -7 -19
-45 -19 -33 0 -45 4 -45 15 0 8 -7 15 -15 15 -28 0 -15 -23 45 -79 57 -54 60
-59 60 -104 0 -68 -30 -97 -100 -97 -67 0 -100 30 -100 90 l0 40 40 0 c37 0
40 -2 40 -28 0 -34 7 -43 26 -35 28 11 13 46 -46 102 -52 50 -60 63 -60 95 0
26 7 44 26 63 22 22 32 25 77 20 39 -3 56 -11 74 -31z m450 10 c28 -24 28 -25
28 -151 0 -126 0 -127 -28 -151 -42 -36 -109 -34 -148 5 -29 29 -29 31 -29
143 0 88 4 119 16 136 33 48 116 57 161 18z m247 2 c20 -29 21 -97 1 -125 -10
-14 -12 -24 -5 -28 5 -3 10 -46 10 -96 l0 -90 -37 3 -38 3 -5 79 c-3 51 -10
81 -17 84 -10 3 -13 -17 -13 -77 l0 -81 -40 0 -40 0 0 175 0 175 84 0 c76 0
86 -2 100 -22z m-465 -14 c15 -19 21 -41 21 -74 0 -66 -28 -100 -81 -100 l-39
0 0 -70 0 -70 -40 0 -40 0 0 170 0 170 79 0 c74 0 81 -2 100 -26z m-642 -196
c-3 -7 -5 -2 -5 12 0 14 2 19 5 13 2 -7 2 -19 0 -25z m-77 -183 c0 -3 -5 -14
-12 -24 -10 -16 -6 -25 21 -59 118 -150 354 -306 578 -383 l54 -18 94 33 c187
67 361 180 498 325 73 77 78 84 63 100 -25 28 -19 33 30 28 43 -4 63 -18 64
-42 0 -18 -126 -168 -178 -212 -147 -124 -337 -233 -500 -284 l-73 -23 -87 29
c-200 68 -371 174 -523 325 -165 163 -173 198 -46 209 9 0 17 -1 17 -4z m450
-105 c0 -11 -4 -20 -9 -20 -5 0 -7 9 -4 20 3 11 7 20 9 20 2 0 4 -9 4 -20z
m71 3 c12 -16 12 -17 -1 -7 -8 7 -24 14 -35 17 -19 4 -19 5 1 6 12 0 28 -7 35
-16z m127 10 c-35 -4 -38 -6 -35 -36 2 -28 7 -33 37 -38 l35 -6 -36 -2 c-40
-1 -49 10 -49 60 0 28 2 29 43 27 l42 -1 -37 -4z m-318 -10 c-19 -3 -41 -9
-48 -15 -9 -8 -11 -7 -6 6 4 12 17 16 48 14 40 -1 40 -1 6 -5z m454 -2 c6 -10
-24 -25 -32 -16 -3 3 0 5 7 5 7 0 9 5 6 10 -3 6 -2 10 4 10 5 0 12 -4 15 -9z
m224 -11 c4 -12 2 -13 -9 -2 -7 6 -26 12 -42 12 -24 0 -28 -3 -24 -20 3 -11 1
-23 -4 -26 -11 -6 -12 39 -2 50 13 13 76 2 81 -14z m-645 -20 c-3 -12 -8 -19
-11 -16 -5 6 5 36 12 36 2 0 2 -9 -1 -20z m479 -10 c-5 -37 -11 -37 -36 -2
l-20 27 22 -19 c22 -19 22 -19 22 2 0 12 4 22 8 22 5 0 7 -13 4 -30z m-325 9
c-15 -9 -16 -13 -5 -27 9 -11 5 -10 -14 3 -26 20 -26 20 -5 27 34 10 44 8 24
-3z m146 4 c-7 -2 -19 -2 -25 0 -7 3 -2 5 12 5 14 0 19 -2 13 -5z m-376 -40
c-3 -10 -5 -4 -5 12 0 17 2 24 5 18 2 -7 2 -21 0 -30z m53 33 c0 -2 -7 -6 -15
-10 -8 -3 -15 -1 -15 4 0 6 7 10 15 10 8 0 15 -2 15 -4z m113 -16 c-3 -12 -8
-19 -11 -16 -5 6 5 36 12 36 2 0 2 -9 -1 -20z m317 10 c0 -5 -5 -10 -11 -10
-5 0 -7 5 -4 10 3 6 8 10 11 10 2 0 4 -4 4 -10z m210 0 c0 -5 -7 -10 -15 -10
-8 0 -15 5 -15 10 0 6 7 10 15 10 8 0 15 -4 15 -10z m30 -15 c0 -14 -2 -25 -4
-25 -2 0 -6 11 -8 25 -3 14 -1 25 3 25 5 0 9 -11 9 -25z"/>
<path d="M910 2000 c-12 -8 -11 -10 7 -10 12 0 25 5 28 10 8 13 -15 13 -35 0z"/>
<path d="M770 1950 c-30 -16 -32 -19 -12 -20 12 0 31 9 42 20 25 25 15 25 -30
0z"/>
<path d="M697 1903 c-9 -2 -15 -9 -12 -14 9 -14 22 -11 29 6 3 8 4 14 3 14 -1
-1 -10 -3 -20 -6z"/>
<path d="M591 1836 c-9 -11 -8 -15 5 -20 23 -9 34 -7 34 5 0 6 -7 8 -16 5 -12
-4 -15 -2 -10 9 7 19 2 19 -13 1z"/>
<path d="M1310 1916 c0 -2 7 -7 16 -10 8 -3 12 -2 9 4 -6 10 -25 14 -25 6z"/>
<path d="M1023 1853 c-36 -7 -27 -16 40 -42 41 -15 94 -26 156 -30 84 -5 94
-4 103 12 12 23 12 24 -55 47 -54 19 -179 26 -244 13z"/>
<path d="M913 1781 c-55 -32 -65 -52 -78 -142 l-6 -46 58 -25 58 -26 75 40
c41 23 80 46 86 52 7 6 15 37 19 69 l6 57 -47 21 c-77 34 -112 34 -171 0z"/>
<path d="M1341 1781 c-9 -16 -4 -30 24 -73 19 -29 38 -61 41 -70 3 -9 14 -20
24 -23 11 -3 40 -26 66 -51 25 -25 48 -43 51 -40 3 2 -3 27 -12 55 -19 59 -89
159 -131 188 -49 33 -53 34 -63 14z"/>
<path d="M789 1698 c-47 -64 -80 -141 -86 -203 -8 -77 16 -75 57 4 16 33 34
62 40 66 5 3 10 23 10 43 0 20 5 57 11 81 5 24 8 46 5 48 -2 3 -19 -15 -37
-39z"/>
<path d="M1040 1568 l-75 -43 -3 -77 c-2 -43 1 -86 7 -96 5 -9 42 -35 83 -56
l73 -39 75 38 c41 21 78 43 82 49 9 14 10 112 2 155 -6 27 -18 38 -78 71 -39
22 -76 40 -81 40 -6 0 -44 -19 -85 -42z"/>
<path d="M1358 1564 l-48 -36 0 -98 0 -99 46 -31 c57 -40 79 -35 132 25 68 78
63 152 -17 228 -27 26 -53 47 -58 47 -4 0 -29 -17 -55 -36z"/>
<path d="M470 1712 c-31 -15 -35 -22 -38 -61 -5 -62 1 -74 33 -59 17 7 25 19
25 35 0 31 17 63 44 85 l21 18 -25 0 c-14 0 -41 -8 -60 -18z"/>
<path d="M369 1637 c-23 -29 -25 -35 -13 -51 7 -11 15 -24 17 -30 3 -7 9 -7
20 3 17 14 25 111 10 111 -5 0 -20 -15 -34 -33z"/>
<path d="M320 1555 c-6 -14 -10 -35 -10 -46 0 -19 0 -19 20 1 21 21 26 55 10
65 -6 3 -15 -6 -20 -20z"/>
<path d="M332 1483 c-12 -17 -22 -44 -22 -60 0 -33 40 -122 62 -141 14 -11 15
-9 7 25 -5 21 -9 67 -9 103 -1 36 -5 74 -9 84 -7 17 -9 16 -29 -11z"/>
<path d="M1670 1681 l0 -41 53 0 c54 0 152 -24 174 -42 7 -5 17 -8 23 -6 17 5
-55 75 -102 99 -22 11 -65 23 -94 26 l-54 6 0 -42z"/>
<path d="M1676 1612 c-4 -6 3 -34 14 -61 21 -48 22 -49 83 -61 34 -6 90 -27
125 -46 l62 -34 0 59 c0 52 -3 62 -26 80 -58 45 -241 90 -258 63z"/>
<path d="M1837 1405 c-24 -51 -100 -128 -152 -156 -25 -13 -45 -28 -45 -33 0
-4 33 -7 73 -4 61 3 83 9 123 33 41 26 114 111 114 134 0 7 -58 47 -81 56 -10
4 -20 -5 -32 -30z"/>
<path d="M276 1014 c-11 -85 -8 -134 10 -134 14 0 15 11 9 88 -4 48 -8 88 -10
90 -1 1 -5 -18 -9 -44z"/>
<path d="M1327 1053 c-14 -13 -8 -190 6 -202 23 -18 27 -2 27 106 0 79 -3 103
-13 103 -8 0 -17 -3 -20 -7z"/>
<path d="M1560 1030 c0 -25 4 -31 18 -28 11 2 17 12 17 28 0 16 -6 26 -17 28
-14 3 -18 -3 -18 -28z"/>
<path d="M1100 1020 c0 -27 4 -40 14 -40 16 0 26 32 19 60 -10 37 -33 23 -33
-20z"/>
<path d="M4 1450 c0 -179 2 -252 3 -162 2 89 2 235 0 325 -1 89 -3 16 -3 -163z"/>
</g>
</svg>
