<?xml version="1.0" standalone="no"?>
<!DOCTYPE svg PUBLIC "-//W3C//DTD SVG 20010904//EN"
 "http://www.w3.org/TR/2001/REC-SVG-20010904/DTD/svg10.dtd">
<svg version="1.0" xmlns="http://www.w3.org/2000/svg"
 width="200.000000pt" height="200.000000pt" viewBox="0 0 200.000000 200.000000"
 preserveAspectRatio="xMidYMid meet">

<g transform="translate(0.000000,200.000000) scale(0.100000,-0.100000)"
fill="#000000" stroke="none">
<path d="M960 1914 c-76 -100 -217 -188 -359 -222 -39 -9 -71 -19 -71 -22 0
-3 56 -74 125 -159 69 -84 125 -156 125 -160 0 -3 -7 -24 -15 -46 -21 -60 -19
-164 5 -227 28 -73 62 -107 153 -157 l78 -42 75 42 c41 22 73 43 71 45 -2 3
-35 -13 -73 -35 l-69 -39 -65 35 c-36 20 -69 40 -74 44 -16 15 277 11 297 -4
15 -10 6 -18 -73 -60 l-90 -49 -83 48 c-45 26 -85 51 -88 56 -3 6 -10 10 -15
11 -5 1 -130 145 -278 322 -148 176 -275 327 -283 335 -25 26 -12 -393 16
-533 86 -423 326 -794 663 -1024 l67 -46 53 34 c61 39 207 160 257 213 31 32
33 37 19 53 -8 10 -72 86 -141 170 -70 83 -131 154 -137 158 -6 4 -10 -32 -10
-104 l0 -111 -40 0 -40 0 0 155 c0 144 1 155 17 146 13 -7 30 -3 65 15 26 13
48 27 48 29 0 3 -18 -4 -40 -15 -21 -11 -45 -20 -51 -20 -25 0 -240 133 -230
143 6 6 48 -13 116 -52 59 -33 111 -61 116 -61 4 0 54 25 109 55 55 30 105 55
110 55 23 0 17 -20 -13 -39 -17 -11 -27 -21 -21 -21 7 0 74 -76 150 -169 100
-122 142 -167 151 -159 25 21 143 270 177 375 66 206 87 333 93 569 l6 211
-139 6 c-161 6 -274 34 -387 95 -76 41 -165 116 -207 174 l-28 38 -42 -56z
m30 -386 c0 -40 -1 -41 -17 -26 -14 14 -15 22 -5 43 16 36 22 31 22 -17z m48
-6 c-5 -45 -28 -38 -28 8 0 37 2 41 16 30 8 -7 14 -25 12 -38z m442 19 c0 -5
10 -11 22 -15 18 -4 20 -8 10 -18 -6 -6 -12 -19 -12 -27 0 -11 -10 -16 -30
-17 -22 -1 -30 3 -30 15 0 10 -5 22 -11 28 -8 8 -5 13 10 18 12 3 21 11 21 16
0 5 5 9 10 9 6 0 10 -4 10 -9z m-496 -98 c-3 -16 -19 -47 -35 -71 -27 -40 -29
-49 -29 -138 0 -72 -3 -95 -12 -92 -9 3 -14 32 -16 87 -2 71 -5 81 -17 71 -10
-8 -15 -31 -15 -66 0 -41 -4 -54 -15 -54 -11 0 -15 12 -15 46 0 53 -23 58 -28
6 -4 -42 -19 -41 -24 2 -4 33 -1 36 45 57 57 27 119 91 138 142 15 43 32 50
23 10z m50 -25 c13 -36 20 -91 23 -170 4 -103 2 -121 -16 -157 -12 -22 -21
-46 -21 -53 1 -7 7 2 15 20 8 18 24 46 35 62 29 41 29 193 0 243 -27 46 -41
95 -29 102 5 4 9 -3 9 -15 0 -12 7 -34 15 -49 18 -36 101 -110 132 -117 19 -5
23 -13 23 -44 0 -21 2 -45 5 -52 4 -9 -8 -17 -39 -26 -57 -15 -107 -59 -131
-114 -24 -55 -24 -55 -35 -38 -9 13 -10 13 -10 0 0 -8 -14 12 -30 45 -27 55
-30 68 -30 172 0 99 3 117 25 161 14 28 25 57 25 66 0 32 16 15 34 -36z m-94
32 c0 -35 -49 -92 -107 -126 -40 -22 -49 -15 -30 23 31 58 137 138 137 103z
m187 -27 c33 -24 90 -109 80 -120 -21 -20 -137 97 -137 139 0 21 6 19 57 -19z
m227 12 c3 -8 13 -15 23 -15 13 0 14 -3 5 -12 -7 -7 -12 -19 -12 -28 0 -12 -9
-17 -30 -17 -21 0 -30 5 -30 17 0 9 -5 21 -12 28 -9 9 -8 12 5 12 10 0 20 7
23 15 4 8 10 15 14 15 4 0 10 -7 14 -15z m272 -4 c15 -12 21 -22 14 -26 -6 -4
-8 -14 -5 -24 4 -14 -1 -17 -30 -17 -25 0 -35 4 -35 16 0 9 -5 21 -12 28 -9 9
-8 12 5 12 10 0 20 7 23 15 8 19 11 19 40 -4z m-121 -61 c17 0 20 -16 6 -24
-5 -3 -7 -16 -4 -27 5 -18 3 -20 -13 -11 -13 7 -25 7 -38 0 -15 -9 -17 -7 -12
10 4 11 2 23 -4 27 -15 9 -12 25 4 25 8 0 17 8 21 18 6 16 7 16 16 0 6 -10 17
-18 24 -18z m75 -130 c11 0 11 -3 2 -12 -7 -7 -12 -19 -12 -28 0 -12 -9 -17
-30 -17 -22 0 -30 5 -30 19 0 10 -4 18 -10 18 -5 0 -10 5 -10 10 0 6 6 10 14
10 8 0 17 7 20 16 6 16 8 16 24 0 10 -9 25 -16 32 -16z m-734 -80 c33 -16 72
-42 86 -57 29 -30 64 -103 49 -103 -5 0 -12 11 -15 25 -13 53 -127 145 -180
145 -8 0 -18 5 -21 10 -11 18 21 10 81 -20z m378 -27 c-11 -46 -23 -74 -45
-104 -18 -26 -26 -29 -75 -29 -30 0 -54 4 -54 9 0 26 69 107 109 128 60 31 73
30 65 -4z m-358 -23 c37 -26 84 -84 84 -104 0 -4 -28 -6 -62 -4 l-62 3 -23 45
c-12 25 -25 58 -29 74 -7 28 -6 29 21 22 15 -4 47 -20 71 -36z m47 -230 l88
-51 92 51 c52 29 97 48 106 45 11 -4 -18 -25 -84 -60 -55 -30 -106 -55 -113
-55 -14 0 -202 108 -202 116 0 12 33 -1 113 -46z m46 -455 c10 -11 -15 -24
-56 -31 -43 -6 -43 -6 -43 23 l0 30 47 -8 c25 -5 49 -11 52 -14z m191 -10 c0
-27 -12 -30 -69 -19 -17 4 -31 12 -31 20 0 14 20 21 68 23 28 1 32 -2 32 -24z
m-120 0 c0 -10 -10 -15 -30 -15 -20 0 -30 5 -30 15 0 10 10 15 30 15 20 0 30
-5 30 -15z m10 -135 l0 -110 -40 0 -40 0 0 110 0 110 40 0 40 0 0 -110z"/>
<path d="M1120 1235 c0 -49 3 -66 13 -62 8 2 12 24 12 62 0 38 -4 60 -12 63
-10 3 -13 -14 -13 -63z"/>
<path d="M1170 1230 c0 -22 5 -40 10 -40 6 0 10 18 10 40 0 22 -4 40 -10 40
-5 0 -10 -18 -10 -40z"/>
<path d="M412 1628 c-21 -21 -13 -64 18 -98 23 -25 36 -31 62 -28 29 3 33 7
36 36 3 26 0 32 -16 32 -15 0 -19 -5 -15 -20 7 -28 -18 -26 -47 4 -24 27 -21
62 5 52 19 -7 31 14 14 25 -20 12 -43 11 -57 -3z"/>
<path d="M571 1476 c-11 -13 -9 -21 8 -45 30 -41 26 -46 -13 -16 -29 22 -35
23 -46 10 -10 -12 -7 -21 18 -52 43 -54 69 -76 82 -68 8 5 1 19 -22 43 l-33
36 38 -28 c48 -35 64 -26 36 22 l-22 37 29 -27 c63 -58 60 -22 -3 46 -57 61
-57 61 -72 42z"/>
<path d="M1110 741 c-18 -14 -21 -23 -14 -33 6 -7 27 -34 48 -60 l38 -48 30
21 c35 25 36 68 1 84 -12 5 -24 20 -28 32 -7 29 -40 30 -75 4z m55 -20 c7 -12
-12 -24 -25 -16 -11 7 -4 25 10 25 5 0 11 -4 15 -9z m40 -50 c7 -12 -12 -24
-25 -16 -11 7 -4 25 10 25 5 0 11 -4 15 -9z"/>
<path d="M1280 600 c-12 -7 -11 -12 5 -30 14 -15 16 -23 7 -32 -9 -9 -17 -7
-32 7 -14 13 -24 15 -31 8 -6 -6 5 -28 37 -66 25 -32 50 -57 55 -57 19 0 19
23 0 44 -18 19 -19 25 -8 34 11 9 18 7 32 -8 18 -20 45 -27 45 -12 0 6 -62 87
-88 114 -4 4 -14 3 -22 -2z"/>
</g>
</svg>
